<svg xmlns="http://www.w3.org/2000/svg" version="1.1" xmlns:xlink="http://www.w3.org/1999/xlink" xmlns:svgjs="http://svgjs.dev/svgjs" width="2000" height="2000" viewBox="0 0 2000 2000"><g transform="matrix(1,0,0,1,-0.28443113772425477,-0.28443113772459583)"><svg viewBox="0 0 334 334" data-background-color="#ffffff" preserveAspectRatio="xMidYMid meet" height="2000" width="2000" xmlns="http://www.w3.org/2000/svg" xmlns:xlink="http://www.w3.org/1999/xlink"><g id="tight-bounds" transform="matrix(1,0,0,1,0.04749999999998522,0.04750000000001364)"><svg viewBox="0 0 333.90454557049503 333.90454557049503" height="333.90454557049503" width="333.90454557049503"><g><svg></svg></g><g><svg viewBox="0 0 333.90454557049503 333.90454557049503" height="333.90454557049503" width="333.90454557049503"><g><path d="M0 166.952c0-92.205 74.747-166.952 166.952-166.952 92.205 0 166.952 74.747 166.953 166.952 0 92.205-74.747 166.952-166.953 166.953-92.205 0-166.952-74.747-166.952-166.953zM166.952 316.63c82.665 0 149.677-67.013 149.678-149.678 0-82.665-67.013-149.677-149.678-149.677-82.665 0-149.677 67.013-149.677 149.677 0 82.665 67.013 149.677 149.677 149.678z" data-fill-palette-color="tertiary" fill="#85144b" stroke="transparent"></path><ellipse rx="160.27418187383762" ry="160.27418187383762" cx="166.95227278524752" cy="166.95227278524752" fill="#85144b" stroke="transparent" stroke-width="0" fill-opacity="1" data-fill-palette-color="tertiary"></ellipse></g><g transform="matrix(1,0,0,1,77.05208361598068,71.17305217166896)"><svg viewBox="0 0 179.80037833853368 191.55844122715712" height="191.55844122715712" width="179.80037833853368"><g><svg viewBox="0 0 179.80037833853368 191.55844122715712" height="191.55844122715712" width="179.80037833853368"><g><svg viewBox="0 0 179.80037833853368 191.55844122715712" height="191.55844122715712" width="179.80037833853368"><g id="textblocktransform"><svg viewBox="0 0 179.80037833853368 191.55844122715712" height="191.55844122715712" width="179.80037833853368" id="textblock"><g><svg viewBox="0 0 179.80037833853368 191.55844122715712" height="191.55844122715712" width="179.80037833853368"><g transform="matrix(1,0,0,1,0,0)"><svg width="179.80037833853368" viewBox="-3.75 -35.7 36.7 39.10000000000001" height="191.55844122715712" data-palette-color="#ffffff"><path d="M-0.45 1.9L-2.05 3.4Q-3.2 3.4-3.6 2.65L-3.6 2.65Q-3.75 2.4-3.75 2.25-3.75 2.1-3.65 2L-3.65 2Q0.9-1.35 7.15-8.5L7.15-8.5Q4.05-10.2 2.35-12.58 0.65-14.95 0.65-16.98 0.65-19 1.9-20.15 3.15-21.3 5.55-21.3L5.55-21.3Q10.1-21.3 13.3-16.05L13.3-16.05Q14.7-17.8 17.78-21.75 20.85-25.7 22.25-27.43 23.65-29.15 25.7-31.5L25.7-31.5Q29.5-35.7 31.45-35.7L31.45-35.7Q32.95-35.65 32.95-34.1L32.95-34.1Q32.95-32.45 31.83-29.58 30.7-26.7 30.03-25.03 29.35-23.35 28.03-20.58 26.7-17.8 25.95-16.18 25.2-14.55 23.65-11.38 22.1-8.2 21.5-6.95L21.5-6.95Q25.35-7.2 27.6-8.3L27.6-8.3Q28-8.5 28.1-8.75 28.2-9 28.38-9 28.55-9 28.73-8.8 28.9-8.6 28.9-8.4L28.9-8.4Q28.9-6.7 21.1-6.05L21.1-6.05Q19.15-2 18.4-0.2L18.4-0.2Q18.2 0.2 17.8 0.2L17.8 0.2Q16.75 0.2 16.75-1.8L16.75-1.8Q16.55-3.35 16.05-6.05L16.05-6.05Q12.1-6.35 8.65-7.8L8.65-7.8 8.65-7.75Q6.5-5.1 3.83-2.33 1.15 0.45-0.45 1.9L-0.45 1.9ZM19.65-6.9L19.65-6.9Q31.1-30.7 31.1-33.45L31.1-33.45Q31.1-34.3 30.5-34.3L30.5-34.3Q29.6-34.3 27.98-32.5 26.35-30.7 25.35-29.5 24.35-28.3 22.7-26.18 21.05-24.05 19.98-22.65 18.9-21.25 16.95-18.63 15-16 14.05-14.75L14.05-14.75Q15.6-11.85 16.85-7.1L16.85-7.1Q18.05-6.9 19.65-6.9ZM12.75-15.3L12.75-15.3Q9.8-20.4 5.75-20.4L5.75-20.4Q3.95-20.4 3.05-19.65 2.15-18.9 2.15-17.43 2.15-15.95 3.83-13.78 5.5-11.6 8.35-9.95L8.35-9.95Q9.85-11.7 12.75-15.3ZM13.45-13.95L13.45-13.95Q11.85-11.8 9.75-9.15L9.75-9.15Q12.7-7.75 15.75-7.25L15.75-7.25Q14.7-11.45 13.45-13.95ZM19.2-5.95L19.2-5.95 17.1-5.95 17.7-2.8Q18.3-4 19.2-5.95Z" opacity="1" transform="matrix(1,0,0,1,0,0)" fill="#ffffff" class="wordmark-text-0" data-fill-palette-color="quaternary" id="text-0"></path></svg></g></svg></g></svg></g></svg></g></svg></g></svg></g></svg></g><defs></defs></svg><rect width="333.90454557049503" height="333.90454557049503" fill="none" stroke="none" visibility="hidden"></rect></g></svg></g></svg>